<?xml version="1.0" encoding="utf-8"?>
<!-- Generator: Adobe Illustrator 16.0.0, SVG Export Plug-In . SVG Version: 6.00 Build 0)  -->
<!DOCTYPE svg PUBLIC "-//W3C//DTD SVG 1.1//EN" "http://www.w3.org/Graphics/SVG/1.1/DTD/svg11.dtd">
<svg version="1.1" id="Layer_1" xmlns="http://www.w3.org/2000/svg" xmlns:xlink="http://www.w3.org/1999/xlink" x="0px" y="0px"
	 width="500px" height="148.275px" viewBox="0 0 500 148.275" enable-background="new 0 0 500 148.275" xml:space="preserve">
<g>
	<g>
		<path fill="#FFFFFF" d="M177.402,52.508v14.436h-39.177c0.36,4.432,1.801,7.572,4.31,9.428c2.505,1.854,6.558,2.774,12.16,2.774
			h22.707v14.438h-24.737c-5.377,0-9.744-0.478-13.118-1.42c-3.362-0.955-6.557-2.578-9.585-4.886
			c-8.185-6.32-12.271-15.764-12.271-28.325c0-8.228,2.168-15.364,6.51-21.417c2.98-4.158,6.551-7.119,10.705-8.884
			c4.16-1.758,9.626-2.642,16.401-2.642h26.096v14.438h-24.737c-5.063,0-8.618,0.86-10.672,2.573
			c-2.063,1.721-3.31,4.883-3.768,9.487H177.402z"/>
		<path fill="#FFFFFF" d="M208.83,26.01h35.851c5.339,0,9.422,0.385,12.269,1.151c2.844,0.77,5.403,2.192,7.657,4.271
			c4.744,4.294,7.119,11.139,7.119,20.535v41.614h-18.572V49.866c0-3.347-0.742-5.749-2.231-7.217
			c-1.494-1.478-3.933-2.205-7.322-2.205h-16.193V93.58H208.83V26.01z"/>
		<path fill="#FFFFFF" d="M356.618,26.01v14.438h-22.296c-7.412,0-12.585,1.673-15.523,5.015c-2.752,3.165-4.131,7.953-4.131,14.368
			c0,7.275,2.259,12.538,6.772,15.793c1.854,1.355,3.863,2.278,6.037,2.778c2.164,0.496,5.198,0.743,9.078,0.743h20.063V93.58
			h-25.424c-6.814,0-12.217-0.688-16.189-2.065c-3.977-1.382-7.521-3.809-10.643-7.285c-5.778-6.465-8.676-14.666-8.676-24.604
			c0-12.022,3.48-21.011,10.44-26.978c2.754-2.396,6.073-4.098,9.959-5.12c3.886-1.012,8.924-1.521,15.105-1.521h25.425
			L356.618,26.01L356.618,26.01z"/>
		<path fill="#FFFFFF" d="M498.472,26.01h-87.7v0.238c-11.47,0.275-20.297,3.815-26.441,10.674
			c-5.653,6.281-8.479,14.163-8.479,23.654c0,11.108,2.938,19.633,8.813,25.548c6.408,6.463,15.269,9.697,26.563,9.697
			c10.937,0,19.543-2.896,25.827-8.682c6.861-6.277,10.296-14.703,10.296-25.274c0-8.316-1.936-15.444-5.763-21.417h56.883V26.01
			L498.472,26.01z M428.309,60.912c0,13.779-5.508,20.67-16.537,20.67c-6.41,0-11.134-2.479-14.159-7.45
			c-1.81-2.938-2.712-7.23-2.712-12.884c0-13.866,5.573-20.803,16.737-20.803C422.746,40.58,428.309,47.402,428.309,60.912z"/>
		<path fill="#FFFFFF" d="M94.24,40.446V26.01H77.025V1.071H58.452V26.01H1.527v14.438h56.926V68.23
			c0,9.134,1.701,15.638,5.117,19.521c3.41,3.886,9.136,5.827,17.179,5.827H94.24V79.144h-7.321c-3.977,0-6.759-1.105-8.337-3.323
			c-1.045-1.488-1.558-5.104-1.558-10.843V40.446H94.24z"/>
	</g>
	<defs>
		<filter id="Adobe_OpacityMaskFilter" filterUnits="userSpaceOnUse" x="1.527" y="93.228" width="496.945" height="53.977">
			
				<feColorMatrix  type="matrix" values="-1 0 0 0 1  0 -1 0 0 1  0 0 -1 0 1  0 0 0 1 0" color-interpolation-filters="sRGB" result="source"/>
		</filter>
	</defs>
	<mask maskUnits="userSpaceOnUse" x="1.527" y="93.228" width="496.945" height="53.977" id="SVGID_1_">
		<g filter="url(#Adobe_OpacityMaskFilter)">
			<g>
				
					<linearGradient id="SVGID_2_" gradientUnits="userSpaceOnUse" x1="-76.094" y1="-423.3923" x2="-76.094" y2="-384.8962" gradientTransform="matrix(1 0 0 -1 223.6401 -290.395)">
					<stop  offset="0.27" style="stop-color:#FFFFFF"/>
					<stop  offset="0.3885" style="stop-color:#FCFCFC"/>
					<stop  offset="0.4838" style="stop-color:#F2F2F2"/>
					<stop  offset="0.5709" style="stop-color:#E1E1E1"/>
					<stop  offset="0.6532" style="stop-color:#C9C9C9"/>
					<stop  offset="0.7322" style="stop-color:#AAAAAA"/>
					<stop  offset="0.8087" style="stop-color:#848484"/>
					<stop  offset="0.8831" style="stop-color:#585858"/>
					<stop  offset="0.9541" style="stop-color:#252525"/>
					<stop  offset="1" style="stop-color:#000000"/>
				</linearGradient>
				<path fill="url(#SVGID_2_)" d="M138.226,117.901c0.458,2.623,1.703,4.427,3.768,5.406c2.054,0.976,5.609,1.465,10.672,1.465
					h24.737v8.226h-26.096c-6.774,0-12.241-0.504-16.401-1.502c-4.154-1.006-7.725-2.691-10.705-5.063
					c-4.342-3.447-6.51-7.516-6.51-12.201c0-7.155,4.087-12.535,12.271-16.138c3.029-1.313,6.223-2.239,9.585-2.782
					c3.374-0.537,7.741-0.811,13.118-0.811h24.737v8.227h-22.707c-5.604,0-9.655,0.523-12.16,1.582
					c-2.509,1.055-3.948,2.846-4.31,5.369h39.177v8.223L138.226,117.901L138.226,117.901z"/>
				
					<linearGradient id="SVGID_3_" gradientUnits="userSpaceOnUse" x1="16.6365" y1="-423.3904" x2="16.6365" y2="-384.8962" gradientTransform="matrix(1 0 0 -1 223.6401 -290.395)">
					<stop  offset="0.27" style="stop-color:#FFFFFF"/>
					<stop  offset="0.3885" style="stop-color:#FCFCFC"/>
					<stop  offset="0.4838" style="stop-color:#F2F2F2"/>
					<stop  offset="0.5709" style="stop-color:#E1E1E1"/>
					<stop  offset="0.6532" style="stop-color:#C9C9C9"/>
					<stop  offset="0.7322" style="stop-color:#AAAAAA"/>
					<stop  offset="0.8087" style="stop-color:#848484"/>
					<stop  offset="0.8831" style="stop-color:#585858"/>
					<stop  offset="0.9541" style="stop-color:#252525"/>
					<stop  offset="1" style="stop-color:#000000"/>
				</linearGradient>
				<path fill="url(#SVGID_3_)" d="M208.83,94.502h18.574v30.271h16.193c3.391,0,5.828-0.414,7.322-1.256
					c1.489-0.834,2.231-2.205,2.231-4.108V94.502h18.572v23.707c0,5.354-2.375,9.254-7.119,11.699
					c-2.254,1.184-4.813,1.995-7.658,2.432c-2.846,0.438-6.929,0.656-12.268,0.656H208.83V94.502z"/>
				
					<linearGradient id="SVGID_4_" gradientUnits="userSpaceOnUse" x1="102.5154" y1="-423.3943" x2="102.5154" y2="-384.8972" gradientTransform="matrix(1 0 0 -1 223.6401 -290.395)">
					<stop  offset="0.27" style="stop-color:#FFFFFF"/>
					<stop  offset="0.3885" style="stop-color:#FCFCFC"/>
					<stop  offset="0.4838" style="stop-color:#F2F2F2"/>
					<stop  offset="0.5709" style="stop-color:#E1E1E1"/>
					<stop  offset="0.6532" style="stop-color:#C9C9C9"/>
					<stop  offset="0.7322" style="stop-color:#AAAAAA"/>
					<stop  offset="0.8087" style="stop-color:#848484"/>
					<stop  offset="0.8831" style="stop-color:#585858"/>
					<stop  offset="0.9541" style="stop-color:#252525"/>
					<stop  offset="1" style="stop-color:#000000"/>
				</linearGradient>
				<path fill="url(#SVGID_4_)" d="M331.195,132.997c-6.184,0-11.223-0.289-15.105-0.865c-3.886-0.586-7.205-1.553-9.959-2.918
					c-6.96-3.396-10.44-8.519-10.44-15.365c0-5.66,2.896-10.334,8.675-14.02c3.122-1.979,6.668-3.363,10.644-4.148
					c3.976-0.783,9.375-1.178,16.19-1.178h25.423v8.227h-20.063c-3.879,0-6.914,0.142-9.08,0.424
					c-2.174,0.283-4.181,0.812-6.035,1.582c-4.516,1.854-6.772,4.853-6.772,8.998c0,3.652,1.379,6.384,4.131,8.187
					c2.938,1.903,8.111,2.854,15.523,2.854h22.296V133L331.195,132.997L331.195,132.997z"/>
				
					<linearGradient id="SVGID_5_" gradientUnits="userSpaceOnUse" x1="213.5217" y1="-423.3943" x2="213.5217" y2="-383.6228" gradientTransform="matrix(1 0 0 -1 223.6401 -290.395)">
					<stop  offset="0.27" style="stop-color:#FFFFFF"/>
					<stop  offset="0.3885" style="stop-color:#FCFCFC"/>
					<stop  offset="0.4838" style="stop-color:#F2F2F2"/>
					<stop  offset="0.5709" style="stop-color:#E1E1E1"/>
					<stop  offset="0.6532" style="stop-color:#C9C9C9"/>
					<stop  offset="0.7322" style="stop-color:#AAAAAA"/>
					<stop  offset="0.8087" style="stop-color:#848484"/>
					<stop  offset="0.8831" style="stop-color:#585858"/>
					<stop  offset="0.9541" style="stop-color:#252525"/>
					<stop  offset="1" style="stop-color:#000000"/>
				</linearGradient>
				<path fill="url(#SVGID_5_)" d="M498.472,124.772h-56.883c3.827-3.401,5.763-7.463,5.763-12.201
					c0-6.022-3.434-10.821-10.296-14.399c-6.284-3.295-14.894-4.943-25.827-4.943c-11.295,0-20.152,1.844-26.563,5.523
					c-5.878,3.371-8.814,8.227-8.814,14.557c0,5.406,2.822,9.896,8.479,13.476c6.146,3.905,14.975,5.926,26.441,6.081V133h87.7
					V124.772L498.472,124.772z M411.638,124.772c-11.164,0-16.737-3.948-16.737-11.852c0-3.221,0.902-5.666,2.712-7.34
					c3.025-2.832,7.749-4.244,14.159-4.244c11.029,0,16.537,3.926,16.537,11.774C428.309,120.811,422.746,124.696,411.638,124.772z"
					/>
				
					<linearGradient id="SVGID_6_" gradientUnits="userSpaceOnUse" x1="-175.7571" y1="-437.5994" x2="-175.7571" y2="-384.8982" gradientTransform="matrix(1 0 0 -1 223.6401 -290.395)">
					<stop  offset="0.27" style="stop-color:#FFFFFF"/>
					<stop  offset="0.3885" style="stop-color:#FCFCFC"/>
					<stop  offset="0.4838" style="stop-color:#F2F2F2"/>
					<stop  offset="0.5709" style="stop-color:#E1E1E1"/>
					<stop  offset="0.6532" style="stop-color:#C9C9C9"/>
					<stop  offset="0.7322" style="stop-color:#AAAAAA"/>
					<stop  offset="0.8087" style="stop-color:#848484"/>
					<stop  offset="0.8831" style="stop-color:#585858"/>
					<stop  offset="0.9541" style="stop-color:#252525"/>
					<stop  offset="1" style="stop-color:#000000"/>
				</linearGradient>
				<path fill="url(#SVGID_6_)" d="M94.24,124.772v8.226H77.025v14.207H58.452v-14.207H1.527v-8.226h56.926v-15.828
					c0-5.2,1.701-8.907,5.117-11.123c3.41-2.211,9.136-3.317,17.179-3.317H94.24v8.227h-7.321c-3.977,0-6.759,0.633-8.337,1.894
					c-1.045,0.852-1.558,2.91-1.558,6.178v13.977H94.24V124.772z"/>
			</g>
		</g>
	</mask>
	<g opacity="0.6" mask="url(#SVGID_1_)">
		<path fill="#DEDEDE" d="M138.226,117.901c0.458,2.623,1.703,4.427,3.768,5.406c2.054,0.976,5.609,1.465,10.672,1.465h24.737v8.226
			h-26.096c-6.774,0-12.241-0.504-16.401-1.502c-4.154-1.006-7.725-2.691-10.705-5.063c-4.342-3.447-6.51-7.516-6.51-12.201
			c0-7.155,4.087-12.535,12.271-16.138c3.029-1.313,6.223-2.239,9.585-2.782c3.374-0.537,7.741-0.811,13.118-0.811h24.737v8.227
			h-22.707c-5.604,0-9.655,0.523-12.16,1.582c-2.509,1.055-3.948,2.846-4.31,5.369h39.177v8.223L138.226,117.901L138.226,117.901z"
			/>
		<path fill="#DEDEDE" d="M208.83,94.502h18.574v30.271h16.193c3.391,0,5.828-0.414,7.322-1.256
			c1.489-0.834,2.231-2.205,2.231-4.108V94.502h18.572v23.707c0,5.354-2.375,9.254-7.119,11.699
			c-2.254,1.184-4.813,1.995-7.658,2.432c-2.846,0.438-6.929,0.656-12.268,0.656H208.83V94.502z"/>
		<path fill="#DEDEDE" d="M331.195,132.997c-6.184,0-11.223-0.289-15.105-0.865c-3.886-0.586-7.205-1.553-9.959-2.918
			c-6.96-3.396-10.44-8.519-10.44-15.365c0-5.66,2.896-10.334,8.675-14.02c3.122-1.979,6.668-3.363,10.644-4.148
			c3.976-0.783,9.375-1.178,16.19-1.178h25.423v8.227h-20.063c-3.879,0-6.914,0.142-9.08,0.424
			c-2.174,0.283-4.181,0.812-6.035,1.582c-4.516,1.854-6.772,4.853-6.772,8.998c0,3.652,1.379,6.384,4.131,8.187
			c2.938,1.903,8.111,2.854,15.523,2.854h22.296V133L331.195,132.997L331.195,132.997z"/>
		<path fill="#DEDEDE" d="M498.472,124.772h-56.883c3.827-3.401,5.763-7.463,5.763-12.201c0-6.022-3.434-10.821-10.296-14.399
			c-6.284-3.295-14.894-4.943-25.827-4.943c-11.295,0-20.152,1.844-26.563,5.523c-5.878,3.371-8.814,8.227-8.814,14.557
			c0,5.406,2.822,9.896,8.479,13.476c6.146,3.905,14.975,5.926,26.441,6.081V133h87.7V124.772L498.472,124.772z M411.638,124.772
			c-11.164,0-16.737-3.948-16.737-11.852c0-3.221,0.902-5.666,2.712-7.34c3.025-2.832,7.749-4.244,14.159-4.244
			c11.029,0,16.537,3.926,16.537,11.774C428.309,120.811,422.746,124.696,411.638,124.772z"/>
		<path fill="#DEDEDE" d="M94.24,124.772v8.226H77.025v14.207H58.452v-14.207H1.527v-8.226h56.926v-15.828
			c0-5.2,1.701-8.907,5.117-11.123c3.41-2.211,9.136-3.317,17.179-3.317H94.24v8.227h-7.321c-3.977,0-6.759,0.633-8.337,1.894
			c-1.045,0.852-1.558,2.91-1.558,6.178v13.977H94.24V124.772z"/>
	</g>
</g>
</svg>
